<svg width="12" height="12" viewBox="0 0 12 12" fill="none" xmlns="http://www.w3.org/2000/svg">
<g clip-path="url(#clip0_402_26251)">
<path d="M5.74938 0.00390625C4.80132 0.00401326 3.87461 0.285354 3.0865 0.812325C2.29839 1.3393 1.68432 2.08821 1.322 2.9643C0.959669 3.84039 0.865373 4.80427 1.05104 5.73396C1.23671 6.66366 1.69399 7.51739 2.36503 8.18711L4.77284 10.5422H2.39521V11.5005H9.10355V10.5422H6.72592L9.13757 8.18327C9.80752 7.51312 10.2637 6.65938 10.4485 5.72998C10.6333 4.80057 10.5384 3.83725 10.1757 2.9618C9.81308 2.08634 9.199 1.33806 8.41113 0.811573C7.62326 0.285081 6.69697 0.00401384 5.74938 0.00390625ZM8.46386 7.5019L5.74938 10.1589L3.03873 7.50573C2.50282 6.96979 2.1378 6.287 1.98982 5.54366C1.84184 4.80033 1.91754 4.02981 2.20735 3.32948C2.49715 2.62916 2.98806 2.03046 3.61803 1.60905C4.248 1.18764 4.98875 0.962438 5.74667 0.961903C6.5046 0.961367 7.24567 1.18552 7.87623 1.60604C8.5068 2.02656 8.99855 2.62456 9.28935 3.32448C9.58014 4.0244 9.65693 4.79481 9.51 5.53835C9.36307 6.28189 8.99902 6.9652 8.46386 7.5019Z" fill="white"/>
<path d="M5.75024 3.85352H7.16626V5.27051C7.16608 6.05265 6.53239 6.68635 5.75024 6.68652C4.96795 6.68652 4.33343 6.05276 4.33325 5.27051C4.33325 4.4881 4.96784 3.85352 5.75024 3.85352Z" stroke="white"/>
</g>
<defs>
<clipPath id="clip0_402_26251">
<rect width="11.5" height="11.5" fill="white"/>
</clipPath>
</defs>
</svg>
