<svg width="12" height="12" viewBox="0 0 12 12" fill="none" xmlns="http://www.w3.org/2000/svg">
<path d="M10.9092 4.02115L7.44385 0.701484C6.99582 0.253572 6.38861 0.00135241 5.75508 5.42283e-06C5.12155 -0.00134156 4.51327 0.248294 4.06333 0.694296L0.590813 4.02115C0.40445 4.20032 0.25609 4.41519 0.154582 4.65294C0.0530753 4.8907 0.000502171 5.14647 0 5.40498L0 11.5H11.5V5.40498C11.4995 5.14647 11.4469 4.8907 11.3454 4.65294C11.2439 4.41519 11.0955 4.20032 10.9092 4.02115V4.02115ZM4.73369 1.37903C5.00836 1.11545 5.37471 0.968919 5.75538 0.970349C6.13606 0.97178 6.50129 1.12106 6.77398 1.38669L10.0074 4.48403L6.76631 7.72511C6.49238 7.98623 6.12845 8.1319 5.75 8.1319C5.37155 8.1319 5.00762 7.98623 4.73369 7.72511L1.4926 4.48403L4.73369 1.37903ZM10.5417 10.5417H0.958333V5.40498C0.958333 5.37432 0.964563 5.34461 0.967438 5.31394L4.05615 8.40265C4.50543 8.8518 5.11471 9.10412 5.75 9.10412C6.38529 9.10412 6.99457 8.8518 7.44385 8.40265L10.5326 5.31394C10.5354 5.34461 10.5417 5.37432 10.5417 5.40498V10.5417Z" fill="white"/>
</svg>
