<svg width="12" height="12" viewBox="0 0 12 12" fill="none" xmlns="http://www.w3.org/2000/svg">
<path d="M6.80426 7.79173C5.40911 7.201 4.29968 6.08899 3.7122 4.69248L5.34136 3.06044L2.34178 0.0584583L0.822344 1.57742C0.558802 1.84246 0.350435 2.15714 0.209297 2.50324C0.0681599 2.84934 -0.00294602 3.21999 9.3486e-05 3.59375C9.3486e-05 7.06675 4.43334 11.5 7.90634 11.5C8.28006 11.5033 8.65071 11.4323 8.99676 11.2911C9.34281 11.15 9.65738 10.9415 9.9222 10.6777L11.4416 9.15831L8.43966 6.15633L6.80426 7.79173ZM9.24418 10.0002C9.06821 10.1746 8.85932 10.3123 8.62964 10.4053C8.39997 10.4983 8.1541 10.5446 7.90634 10.5417C4.9197 10.5417 0.958427 6.5804 0.958427 3.59375C0.955605 3.34594 1.00201 3.10004 1.09496 2.8703C1.18791 2.64056 1.32554 2.43157 1.49989 2.25544L2.34178 1.41354L3.98868 3.06044L2.58232 4.46679L2.69972 4.761C3.04532 5.68546 3.58558 6.52484 4.28392 7.22226C4.98225 7.91968 5.82233 8.45886 6.74724 8.80325L7.03761 8.91394L8.43966 7.51142L10.0866 9.15831L9.24418 10.0002ZM6.70843 0.958333V0C7.97883 0.00139514 9.1968 0.506678 10.0951 1.40499C10.9934 2.3033 11.4987 3.52127 11.5001 4.79167H10.5418C10.5406 3.77535 10.1364 2.80099 9.41774 2.08235C8.6991 1.36371 7.72474 0.959475 6.70843 0.958333V0.958333ZM6.70843 2.875V1.91667C7.47069 1.91743 8.20152 2.22057 8.74052 2.75958C9.27952 3.29858 9.58267 4.0294 9.58343 4.79167H8.62509C8.62509 4.28333 8.42316 3.79582 8.06371 3.43638C7.70427 3.07693 7.21676 2.875 6.70843 2.875Z" fill="white"/>
</svg>
