<svg width="55" height="57" viewBox="0 0 55 57" fill="none" xmlns="http://www.w3.org/2000/svg">
<path d="M29.9802 54.8724L29.6591 55.0346C26.3627 56.696 22.5019 55.8521 20.0891 53.2324C19.8111 52.8452 19.5612 52.4265 19.3428 51.9814C17.2279 47.5613 15.1113 43.1428 12.9964 38.7211C12.9286 38.5804 12.8624 38.4414 12.7962 38.3007C12.7433 38.1899 12.6886 38.0773 12.6357 37.9665C12.0482 36.7386 11.4607 35.5123 10.8749 34.2861C10.8749 34.2861 10.8683 34.2728 10.8667 34.2662L10.582 33.649L10.4447 33.3527L10.0177 32.431L9.76618 31.8899L9.69833 31.7442L9.69502 31.736L9.67351 31.688L8.5085 29.1676L0.818412 12.548C-1.16079 8.27185 0.575149 3.08059 4.67421 1.01533L4.99525 0.854814C9.09431 -1.21044 14.0655 0.596658 16.0447 4.87444L25.5617 25.4508L25.6428 25.6262L25.8083 25.982L26.3577 27.1686L26.6572 27.814L27.1355 28.8499L27.5889 29.8279L28.7953 32.4376L29.674 34.3374L29.7005 34.392L33.8376 43.3364C35.8168 47.6142 34.0809 52.8038 29.9818 54.8691L29.9802 54.8724Z" fill="#EE4C01"/>
<path d="M26.7776 28.2289C26.7776 28.2289 26.7776 28.2339 26.7759 28.2372C26.5873 29.0613 25.7383 32.3395 22.5842 34.4412C22.0017 34.8301 21.4175 35.1263 20.8516 35.353C20.8052 35.3712 20.7572 35.3894 20.7109 35.4076C20.6712 35.4225 20.6315 35.4374 20.5918 35.4523C20.552 35.4672 20.5123 35.4821 20.4726 35.4953C20.1896 35.5963 19.9116 35.679 19.6435 35.7469C19.5658 35.7667 19.488 35.7866 19.4102 35.8048C19.3721 35.8131 19.3324 35.823 19.2944 35.8313C19.2762 35.8362 19.258 35.8396 19.2414 35.8429C18.452 36.0117 17.7603 36.0613 17.2457 36.0729C17.1828 36.0729 17.1199 36.0745 17.057 36.0745C16.9014 36.0745 16.7674 36.0745 16.6565 36.0712C13.8036 36.0166 11.7449 34.8533 10.8745 34.2873C10.8745 34.2873 10.8679 34.2741 10.8662 34.2674L10.5816 33.6502L10.4442 33.354L10.0173 32.4322L9.76574 31.8911L9.69789 31.7455L9.69458 31.7372C10.4293 32.1972 11.5199 32.7797 12.9282 33.1984C14.1048 33.5459 16.175 34.1682 18.649 33.5095C20.4064 33.0412 21.588 32.1492 22.0398 31.8017C23.5258 30.6566 24.4112 29.3277 25.0681 28.3332C25.4984 27.6811 25.8145 27.1102 26.0263 26.7031C26.2762 27.2112 26.5261 27.7209 26.7776 28.2306V28.2289Z" fill="#CC3A00"/>
<path d="M29.7296 34.2932C29.7213 34.323 29.7098 34.3578 29.6982 34.3925C29.6502 34.5315 29.579 34.7102 29.4665 34.9618C28.3842 37.3779 26.0095 39.5805 23.5123 40.5618C19.1551 42.2729 14.9551 40.0537 14.1939 39.6301C13.8149 39.4183 13.4724 39.1949 13.1712 38.9797C13.1447 38.9615 13.1199 38.9433 13.0967 38.9251L12.9974 38.7199C12.9296 38.5793 12.8634 38.4403 12.7972 38.2996C12.7442 38.1887 12.6896 38.0762 12.6367 37.9653C12.0492 36.7374 11.4617 35.5112 10.8759 34.2849C10.8759 34.2849 10.8693 34.2717 10.8676 34.2651L10.583 33.6478C10.9057 33.81 11.2681 33.9738 11.6669 34.1294C12.0691 34.2866 12.5093 34.4322 12.9858 34.5596C13.3267 34.6507 15.8703 35.3043 18.3443 34.8178C23.2989 33.8431 25.8242 28.7147 26.1187 28.0925C26.2131 27.8807 26.3074 27.6689 26.4001 27.457C26.506 27.6738 26.6102 27.8906 26.7161 28.1074L26.7774 28.2348L27.1067 28.9116L27.2689 29.2459L27.5717 29.8648L27.5882 29.8301L28.0235 28.9414L28.1145 28.7544L28.2386 28.4996C29.0329 29.5984 30.4495 31.9235 29.7313 34.2965L29.7296 34.2932Z" fill="#9B2E04"/>
<path d="M53.6495 12.8573L34.4715 51.9812C32.9689 55.0476 29.9719 56.7803 26.9072 56.7058C24.2892 56.7703 21.7192 55.5143 20.0892 53.2339C19.8112 52.8467 19.5613 52.428 19.3428 51.9828C17.2279 47.5627 15.1114 43.1443 12.9965 38.7225C12.9286 38.5819 12.8624 38.4429 12.7963 38.3022C12.7433 38.1913 12.6887 38.0788 12.6357 37.9679C12.0483 36.74 11.4608 35.5138 10.875 34.2875C10.875 34.2875 10.8684 34.2743 10.8667 34.2677C10.8733 34.2727 10.8799 34.276 10.8882 34.2809C11.3003 34.549 13.7776 36.0731 17.0575 36.0731C17.1204 36.0731 17.1833 36.0731 17.2461 36.0715C17.8849 36.0599 18.5535 35.9904 19.2419 35.8415C19.2584 35.8381 19.2766 35.8332 19.2948 35.8299C19.3329 35.8216 19.3726 35.8133 19.4107 35.8034C19.4885 35.7852 19.5662 35.7653 19.644 35.7455C19.9171 35.6743 20.1951 35.5916 20.4731 35.4939C20.5128 35.4807 20.5525 35.4658 20.5922 35.4509C20.632 35.436 20.6717 35.4211 20.7114 35.4062C20.7577 35.388 20.8057 35.3698 20.8521 35.3516C25.0438 33.6984 26.6424 29.9618 26.9072 29.318L27.1057 28.9126L27.1107 28.9043L27.1372 28.8514L27.5641 27.9793L27.6551 27.7923L27.7793 27.5374L38.9528 4.74353C40.424 1.74163 43.3282 0.015625 46.3268 0.015625C47.611 0.015625 48.9117 0.333357 50.1247 1.00192C54.1658 3.23265 55.7545 8.56623 53.6512 12.8556L53.6495 12.8573Z" fill="white"/>
</svg>
