<svg width="145" height="39" viewBox="0 0 145 39" fill="none" xmlns="http://www.w3.org/2000/svg">
<path d="M39.9123 0V4.23065C39.9123 5.39867 39.4393 6.45695 38.6736 7.22261C37.908 7.98827 36.8505 8.46213 35.6817 8.46213C34.5128 8.46213 33.4554 7.98827 32.6897 7.22261C31.9241 6.45695 31.4502 5.3995 31.4502 4.23065C31.4502 1.89377 33.3448 0 35.6817 0L39.9123 0Z" fill="#EE4C01"/>
<path d="M15.0609 37.2572L14.8996 37.3386C13.2436 38.1733 11.3041 37.7493 10.092 36.4333C9.95233 36.2388 9.8268 36.0285 9.71707 35.8048C8.65463 33.5843 7.59135 31.3647 6.52891 29.1434C6.49483 29.0727 6.46157 29.0029 6.42832 28.9322C6.40172 28.8765 6.37428 28.82 6.34768 28.7643C6.05256 28.1474 5.75743 27.5314 5.46314 26.9154C5.46314 26.9154 5.45982 26.9087 5.45899 26.9054L5.316 26.5953L5.247 26.4465L5.03251 25.9835L4.90615 25.7116L4.87207 25.6385L4.8704 25.6343L4.8596 25.6102L4.27434 24.3441L0.411138 15.995C-0.583135 13.8469 0.288933 11.239 2.34814 10.2015L2.50942 10.1208C4.56863 9.08333 7.06595 9.99114 8.06022 12.1401L12.8412 22.4769L12.8819 22.565L12.9651 22.7438L13.2411 23.3398L13.3916 23.6641L13.6318 24.1845L13.8596 24.6758L14.4656 25.9868L14.9071 26.9412L14.9204 26.9686L16.9987 31.462C17.993 33.6109 17.1209 36.218 15.0617 37.2555L15.0609 37.2572Z" fill="#EE4C01"/>
<path d="M13.4529 23.872C13.4529 23.872 13.4529 23.8744 13.4521 23.8761C13.3573 24.2901 12.9309 25.937 11.3463 26.9928C11.0537 27.1881 10.7602 27.3369 10.4759 27.4508C10.4527 27.46 10.4285 27.4691 10.4053 27.4783C10.3853 27.4858 10.3654 27.4932 10.3454 27.5007C10.3255 27.5082 10.3055 27.5157 10.2856 27.5223C10.1434 27.573 10.0037 27.6146 9.86906 27.6487C9.82999 27.6587 9.79092 27.6687 9.75184 27.6778C9.73272 27.682 9.71277 27.6869 9.69365 27.6911C9.6845 27.6936 9.67536 27.6953 9.66705 27.6969C9.2705 27.7817 8.92301 27.8067 8.66446 27.8125C8.63287 27.8125 8.60128 27.8133 8.56969 27.8133C8.49154 27.8133 8.42421 27.8133 8.36851 27.8116C6.93529 27.7842 5.90111 27.1998 5.46383 26.9155C5.46383 26.9155 5.46051 26.9088 5.45968 26.9055L5.31669 26.5954L5.24769 26.4466L5.0332 25.9835L4.90684 25.7117L4.87276 25.6385L4.87109 25.6344C5.24021 25.8655 5.78805 26.1581 6.49552 26.3684C7.08659 26.543 8.12659 26.8556 9.36943 26.5247C10.2523 26.2895 10.8459 25.8414 11.0728 25.6668C11.8194 25.0915 12.2641 24.424 12.5942 23.9243C12.8103 23.5968 12.9691 23.31 13.0755 23.1055C13.201 23.3607 13.3266 23.6167 13.4529 23.8728V23.872Z" fill="#CC3A00"/>
<path d="M14.9359 26.9186C14.9317 26.9336 14.9259 26.951 14.9201 26.9685C14.896 27.0383 14.8602 27.1281 14.8037 27.2545C14.26 28.4682 13.0671 29.5747 11.8126 30.0677C9.62368 30.9273 7.51376 29.8125 7.13135 29.5997C6.94097 29.4932 6.76889 29.381 6.61759 29.2729C6.60428 29.2638 6.59181 29.2547 6.58018 29.2455L6.5303 29.1424C6.49621 29.0718 6.46296 29.0019 6.42971 28.9313C6.4031 28.8756 6.37567 28.819 6.34907 28.7633C6.05394 28.1465 5.75882 27.5305 5.46453 26.9145C5.46453 26.9145 5.4612 26.9078 5.46037 26.9045L5.31738 26.5944C5.47949 26.6759 5.66155 26.7582 5.86191 26.8363C6.06392 26.9153 6.28505 26.9884 6.52448 27.0525C6.69573 27.0982 7.97349 27.4266 9.21633 27.1821C11.7053 26.6925 12.9739 24.1162 13.1219 23.8036C13.1693 23.6972 13.2167 23.5908 13.2633 23.4844C13.3165 23.5933 13.3688 23.7022 13.422 23.8111L13.4528 23.8751L13.6182 24.2151L13.6997 24.383L13.8518 24.694L13.8602 24.6765L14.0788 24.2301L14.1245 24.1361L14.1869 24.0081C14.5859 24.5601 15.2975 25.7281 14.9367 26.9203L14.9359 26.9186Z" fill="#9B2E04"/>
<path d="M26.9524 16.1504L17.3181 35.8047C16.5632 37.3452 15.0577 38.2156 13.5181 38.1782C12.2029 38.2106 10.9118 37.5796 10.093 36.434C9.95331 36.2395 9.82778 36.0292 9.71804 35.8055C8.6556 33.585 7.59233 31.3654 6.52988 29.1441C6.4958 29.0734 6.46255 29.0036 6.42929 28.9329C6.40269 28.8772 6.37526 28.8207 6.34865 28.765C6.05353 28.1481 5.75841 27.5321 5.46412 26.9161C5.46412 26.9161 5.46079 26.9095 5.45996 26.9061C5.46329 26.9086 5.46661 26.9103 5.47077 26.9128C5.67777 27.0475 6.92227 27.8131 8.56997 27.8131C8.60156 27.8131 8.63315 27.8131 8.66475 27.8123C8.98564 27.8065 9.3215 27.7715 9.66733 27.6967C9.67564 27.6951 9.68479 27.6926 9.69393 27.6909C9.71305 27.6867 9.73301 27.6826 9.75213 27.6776C9.7912 27.6685 9.83027 27.6585 9.86934 27.6485C10.0065 27.6128 10.1462 27.5712 10.2858 27.5221C10.3058 27.5155 10.3257 27.508 10.3457 27.5005C10.3657 27.493 10.3856 27.4856 10.4056 27.4781C10.4288 27.4689 10.4529 27.4598 10.4762 27.4506C12.582 26.6201 13.385 24.743 13.5181 24.4196L13.6178 24.2159L13.6203 24.2118L13.6336 24.1852L13.8481 23.7471L13.8938 23.6531L13.9562 23.5251L19.5693 12.0743C20.3084 10.5663 21.7674 9.69922 23.2737 9.69922C23.9189 9.69922 24.5723 9.85884 25.1816 10.1947C27.2118 11.3153 28.0098 13.9947 26.9532 16.1495L26.9524 16.1504Z" fill="#353535"/>
<path d="M31.4248 10.0234V37.8065H39.9393V10.0234H31.4248Z" fill="#353535"/>
<path d="M56.3518 11.2182C56.2054 11.3022 55.4281 11.7519 54.537 12.5375C53.428 13.5152 52.6989 14.5203 52.245 15.2518V10.0236H43.7305V37.8067H52.245V25.1596C52.3048 24.2552 52.5725 22.1735 54.1121 20.2806C56.9595 16.7798 61.5692 17.1082 62.0181 17.1481C62.0306 14.7705 62.0439 12.3921 62.0563 10.0144C60.7412 9.9363 58.4766 10.0045 56.3526 11.219L56.3518 11.2182Z" fill="#353535"/>
<path d="M77.3539 30.4891C76.2907 30.4891 75.5358 30.2738 75.0886 29.8415C74.6405 29.4109 74.4168 28.6469 74.4168 27.5512V17.1944H79.9926V10.025H74.4168V3.20312H65.9023V27.4015C65.9023 31.1192 66.806 33.7828 68.6158 35.3923C70.4248 37.0034 72.9554 37.8073 76.2092 37.8073H80.0433V30.4883H77.3548L77.3539 30.4891Z" fill="#353535"/>
<path d="M111.876 10.0234V37.8065H103.312V32.7778C102.515 34.4047 101.328 35.6991 99.7521 36.6618C98.1751 37.6245 96.3412 38.1058 94.2504 38.1058C91.0639 38.1058 88.5325 37.0434 86.657 34.9193C84.7815 32.7953 83.8438 29.874 83.8438 26.1563V10.0234H92.3084V25.1104C92.3084 27.0026 92.798 28.4715 93.7773 29.5165C94.7558 30.5623 96.0751 31.0852 97.7361 31.0852C99.3971 31.0852 100.823 30.5374 101.819 29.4425C102.815 28.3468 103.313 26.7872 103.313 24.7621V10.0234H111.877H111.876Z" fill="#353535"/>
<path d="M137.538 11.3933C139.712 12.5389 141.422 14.1899 142.667 16.3472C143.911 18.5054 144.534 21.0276 144.534 23.9157C144.534 26.8037 143.911 29.3268 142.667 31.4841C141.422 33.6422 139.712 35.2933 137.538 36.438C135.364 37.5836 132.9 38.1555 130.144 38.1555C127.389 38.1555 124.916 37.5828 122.726 36.438C120.535 35.2933 118.818 33.6422 117.572 31.4841C116.328 29.3268 115.705 26.8037 115.705 23.9157C115.705 21.0276 116.328 18.5054 117.572 16.3472C118.817 14.1899 120.534 12.5381 122.726 11.3933C124.916 10.2486 127.389 9.67578 130.144 9.67578C132.9 9.67578 135.364 10.2486 137.538 11.3933ZM126.037 18.8121C124.925 19.9909 124.369 21.6919 124.369 23.9157C124.369 26.1395 124.925 27.8329 126.037 28.9943C127.148 30.1565 128.518 30.7367 130.144 30.7367C131.771 30.7367 133.132 30.1565 134.227 28.9943C135.323 27.8329 135.87 26.1403 135.87 23.9157C135.87 21.691 135.322 19.9909 134.227 18.8121C133.132 17.6341 131.771 17.0447 130.144 17.0447C128.518 17.0447 127.148 17.6341 126.037 18.8121Z" fill="#353535"/>
</svg>
