<svg width="498" height="170" viewBox="0 0 498 170" fill="none" xmlns="http://www.w3.org/2000/svg">
<path d="M137.448 0V14.5694C137.448 18.5918 135.819 22.2363 133.183 24.873C130.546 27.5097 126.904 29.1416 122.879 29.1416C118.854 29.1416 115.212 27.5097 112.575 24.873C109.939 22.2363 108.307 18.5946 108.307 14.5694C108.307 6.52172 114.831 0 122.879 0L137.448 0Z" fill="#EE4C01"/>
<path d="M51.8662 128.264L51.3107 128.545C45.6078 131.419 38.9286 129.959 34.7545 125.427C34.2735 124.757 33.8412 124.033 33.4633 123.263C29.8045 115.616 26.1429 107.972 22.4841 100.322C22.3667 100.079 22.2522 99.8382 22.1376 99.5949C22.046 99.403 21.9516 99.2084 21.8599 99.0165C20.8436 96.8923 19.8273 94.7708 18.8138 92.6494C18.8138 92.6494 18.8023 92.6265 18.7995 92.6151L18.3071 91.5472L18.0694 91.0348L17.3308 89.4401L16.8956 88.5039L16.7783 88.252L16.7725 88.2377L16.7353 88.1547L14.7198 83.7944L1.41587 55.0422C-2.00818 47.6444 0.995017 38.6634 8.08646 35.0905L8.64186 34.8128C15.7333 31.2399 24.3335 34.3662 27.7575 41.7668L44.2222 77.3643L44.3625 77.6678L44.6487 78.2833L45.5992 80.336L46.1174 81.4526L46.9448 83.2448L47.7292 84.9367L49.8163 89.4516L51.3365 92.7382L51.3823 92.8327L58.5396 108.307C61.9637 115.707 58.9605 124.685 51.869 128.258L51.8662 128.264Z" fill="#EE4C01"/>
<path d="M46.3273 82.166C46.3273 82.166 46.3273 82.1746 46.3244 82.1803C45.9981 83.606 44.5294 89.2775 39.0727 92.9134C38.0649 93.5861 37.0543 94.0986 36.0752 94.4908C35.995 94.5223 35.912 94.5538 35.8319 94.5853C35.7631 94.6111 35.6944 94.6368 35.6257 94.6626C35.557 94.6884 35.4883 94.7141 35.4196 94.737C34.93 94.9117 34.4491 95.0548 33.9853 95.1722C33.8507 95.2065 33.7162 95.2409 33.5816 95.2724C33.5158 95.2867 33.447 95.3039 33.3812 95.3182C33.3497 95.3268 33.3182 95.3325 33.2896 95.3382C31.924 95.6303 30.7273 95.7161 29.8369 95.7362C29.7281 95.7362 29.6193 95.7391 29.5105 95.7391C29.2414 95.7391 29.0095 95.7391 28.8177 95.7333C23.8821 95.6389 20.3206 93.6262 18.8147 92.6471C18.8147 92.6471 18.8032 92.6242 18.8004 92.6127L18.308 91.5449L18.0703 91.0324L17.3317 89.4378L16.8965 88.5016L16.7792 88.2497L16.7734 88.2354C18.0446 89.0312 19.9312 90.039 22.3676 90.7633C24.4031 91.3645 27.9846 92.441 32.2647 91.3015C35.3051 90.4913 37.3492 88.9482 38.1308 88.347C40.7017 86.3659 42.2333 84.067 43.3699 82.3463C44.1143 81.2184 44.6611 80.2306 45.0275 79.5264C45.4598 80.4053 45.8921 81.2871 46.3273 82.1688V82.166Z" fill="#CC3A00"/>
<path d="M51.4345 92.6636C51.4202 92.7152 51.4001 92.7753 51.3801 92.8354C51.2971 93.0759 51.1739 93.3851 50.9793 93.8202C49.1069 98.0001 44.9986 101.811 40.6785 103.508C33.1404 106.469 25.8744 102.629 24.5574 101.897C23.9018 101.53 23.3092 101.144 22.7881 100.771C22.7423 100.74 22.6994 100.708 22.6593 100.677L22.4875 100.322C22.3702 100.079 22.2556 99.8381 22.1411 99.5947C22.0495 99.4029 21.955 99.2082 21.8634 99.0164C20.8471 96.8921 19.8308 94.7707 18.8173 92.6493C18.8173 92.6493 18.8058 92.6264 18.803 92.6149L18.3105 91.5471C18.8688 91.8276 19.4958 92.1111 20.1858 92.3802C20.8814 92.6522 21.643 92.9041 22.4675 93.1245C23.0573 93.282 27.4576 94.4129 31.7376 93.5712C40.3092 91.8849 44.678 83.0127 45.1876 81.9363C45.3508 81.5698 45.514 81.2034 45.6743 80.8369C45.8575 81.212 46.0379 81.587 46.2211 81.962L46.327 82.1825L46.8967 83.3534L47.1773 83.9317L47.7012 85.0025L47.7299 84.9423L48.4828 83.4049L48.6403 83.0814L48.855 82.6406C50.2292 84.5415 52.6798 88.5639 51.4373 92.6693L51.4345 92.6636Z" fill="#9B2E04"/>
<path d="M92.8138 55.5746L59.6354 123.26C57.0359 128.565 51.8512 131.562 46.5491 131.433C42.0199 131.545 37.5738 129.372 34.7538 125.427C34.2729 124.757 33.8406 124.033 33.4627 123.263C29.8039 115.616 26.1422 107.972 22.4834 100.322C22.366 100.079 22.2515 99.8381 22.137 99.5948C22.0454 99.403 21.9509 99.2083 21.8593 99.0165C20.8429 96.8922 19.8266 94.7708 18.8131 92.6494C18.8131 92.6494 18.8017 92.6265 18.7988 92.615C18.8103 92.6236 18.8217 92.6293 18.836 92.6379C19.5489 93.1017 23.8347 95.7384 29.509 95.7384C29.6178 95.7384 29.7266 95.7384 29.8354 95.7356C30.9404 95.7155 32.0971 95.5953 33.288 95.3376C33.3167 95.3319 33.3482 95.3233 33.3796 95.3176C33.4455 95.3033 33.5142 95.289 33.5801 95.2718C33.7146 95.2403 33.8492 95.2059 33.9837 95.1716C34.4561 95.0485 34.9371 94.9053 35.418 94.7364C35.4868 94.7135 35.5555 94.6878 35.6242 94.662C35.6929 94.6362 35.7616 94.6105 35.8303 94.5847C35.9105 94.5532 35.9935 94.5217 36.0737 94.4902C43.3254 91.6302 46.091 85.1657 46.5491 84.052L46.8926 83.3506L46.9012 83.3363L46.947 83.2447L47.6856 81.7359L47.8431 81.4124L48.0578 80.9715L67.3882 41.5377C69.9333 36.3444 74.9578 33.3584 80.1454 33.3584C82.367 33.3584 84.6172 33.9081 86.7158 35.0647C93.707 38.9239 96.4554 48.1511 92.8166 55.5718L92.8138 55.5746Z" fill="white"/>
<path d="M108.219 34.5264V130.205H137.541V34.5264H108.219Z" fill="white"/>
<path d="M194.064 38.6401C193.561 38.9293 190.884 40.4781 187.815 43.1836C183.996 46.5503 181.485 50.0116 179.922 52.531V34.5261H150.6V130.205H179.922V86.6512C180.128 83.5363 181.05 76.3676 186.352 69.8487C196.157 57.793 212.032 58.9239 213.578 59.0613C213.621 50.8733 213.667 42.6825 213.71 34.4946C209.181 34.2255 201.382 34.4603 194.067 38.643L194.064 38.6401Z" fill="white"/>
<path d="M266.386 104.999C262.724 104.999 260.125 104.257 258.584 102.769C257.041 101.286 256.271 98.6546 256.271 94.8813V59.2151H275.473V34.5253H256.271V11.0322H226.949V94.3659C226.949 107.169 230.061 116.342 236.294 121.884C242.523 127.433 251.238 130.201 262.444 130.201H275.647V104.996H266.389L266.386 104.999Z" fill="white"/>
<path d="M385.274 34.5264V130.205H355.78V112.887C353.037 118.49 348.949 122.947 343.521 126.263C338.09 129.578 331.775 131.236 324.574 131.236C313.601 131.236 304.883 127.577 298.424 120.262C291.966 112.947 288.736 102.887 288.736 90.0841V34.5264H317.887V86.4825C317.887 92.9985 319.573 98.0573 322.945 101.656C326.315 105.258 330.858 107.058 336.578 107.058C342.299 107.058 347.208 105.172 350.638 101.401C354.068 97.6279 355.783 92.257 355.783 85.283V34.5264H385.277H385.274Z" fill="white"/>
<path d="M473.65 39.241C481.136 43.1861 487.025 48.8718 491.311 56.3011C495.597 63.7332 497.741 72.4193 497.741 82.365C497.741 92.3108 495.597 101 491.311 108.429C487.025 115.861 481.136 121.547 473.65 125.489C466.163 129.434 457.675 131.404 448.187 131.404C438.699 131.404 430.182 129.431 422.638 125.489C415.094 121.547 409.18 115.861 404.891 108.429C400.605 101 398.461 92.3108 398.461 82.365C398.461 72.4193 400.605 63.7332 404.891 56.3011C409.177 48.8718 415.092 43.1832 422.638 39.241C430.182 35.2987 438.696 33.3262 448.187 33.3262C457.677 33.3262 466.163 35.2987 473.65 39.241ZM434.041 64.7896C430.211 68.8492 428.298 74.7067 428.298 82.365C428.298 90.0233 430.211 95.8551 434.041 99.8546C437.869 103.857 442.584 105.855 448.187 105.855C453.79 105.855 458.476 103.857 462.247 99.8546C466.02 95.8551 467.904 90.0262 467.904 82.365C467.904 74.7039 466.017 68.8492 462.247 64.7896C458.476 60.7329 453.787 58.703 448.187 58.703C442.587 58.703 437.869 60.7329 434.041 64.7896Z" fill="white"/>
<path d="M118.125 159.285C118.097 158.539 117.921 157.897 117.597 157.362C117.287 156.812 116.857 156.39 116.307 156.094C115.772 155.798 115.138 155.65 114.405 155.65C113.63 155.65 112.946 155.826 112.354 156.178C111.777 156.531 111.319 157.024 110.98 157.658C110.642 158.292 110.473 159.032 110.473 159.877C110.473 160.751 110.642 161.519 110.98 162.181C111.333 162.83 111.819 163.337 112.439 163.703C113.059 164.07 113.764 164.253 114.553 164.253C115.962 164.253 117.11 163.774 117.998 162.816L118.907 163.724C118.372 164.302 117.723 164.753 116.962 165.077C116.201 165.387 115.363 165.542 114.447 165.542C113.348 165.542 112.376 165.31 111.53 164.845C110.699 164.366 110.05 163.703 109.585 162.858C109.12 162.012 108.888 161.04 108.888 159.941C108.888 158.842 109.12 157.876 109.585 157.045C110.05 156.199 110.699 155.544 111.53 155.079C112.376 154.6 113.334 154.353 114.405 154.339C115.603 154.339 116.596 154.6 117.385 155.121C118.174 155.629 118.752 156.347 119.118 157.277C119.499 158.193 119.654 159.271 119.584 160.511H110.177V159.285H118.125ZM131.693 156.495C131.256 156.228 130.77 156.016 130.235 155.861C129.699 155.706 129.178 155.629 128.67 155.629C128.05 155.629 127.529 155.755 127.106 156.009C126.683 156.249 126.472 156.643 126.472 157.193C126.472 157.616 126.62 157.954 126.916 158.207C127.226 158.447 127.614 158.651 128.079 158.82C128.558 158.975 129.058 159.13 129.579 159.285C130.101 159.441 130.601 159.638 131.08 159.877C131.559 160.103 131.947 160.42 132.243 160.829C132.539 161.237 132.687 161.773 132.687 162.435C132.687 163.154 132.489 163.746 132.095 164.211C131.714 164.662 131.214 165 130.594 165.225C129.988 165.437 129.326 165.542 128.607 165.542C127.818 165.542 127.043 165.408 126.282 165.141C125.521 164.873 124.873 164.492 124.337 163.999L124.971 162.879C125.45 163.316 126.021 163.661 126.683 163.915C127.36 164.154 128.022 164.274 128.67 164.274C129.107 164.274 129.502 164.218 129.854 164.105C130.221 163.978 130.509 163.795 130.721 163.555C130.946 163.302 131.059 162.985 131.059 162.604C131.073 162.139 130.932 161.78 130.636 161.526C130.354 161.258 129.974 161.04 129.495 160.871C129.03 160.702 128.53 160.54 127.994 160.385C127.473 160.23 126.972 160.039 126.493 159.814C126.028 159.574 125.648 159.264 125.352 158.884C125.056 158.489 124.908 157.961 124.908 157.299C124.908 156.608 125.091 156.044 125.457 155.608C125.824 155.171 126.296 154.847 126.874 154.635C127.466 154.424 128.1 154.318 128.776 154.318C129.438 154.318 130.08 154.41 130.7 154.593C131.32 154.762 131.862 155.002 132.327 155.312L131.693 156.495ZM140.806 162.16C140.806 162.865 140.933 163.372 141.187 163.682C141.44 163.978 141.807 164.126 142.286 164.126C142.568 164.112 142.857 164.063 143.152 163.978C143.448 163.879 143.751 163.731 144.061 163.534L144.526 164.739C144.146 164.993 143.737 165.197 143.3 165.352C142.878 165.493 142.448 165.563 142.011 165.563C141.461 165.563 140.975 165.458 140.553 165.246C140.13 165.021 139.792 164.676 139.538 164.211C139.298 163.746 139.179 163.147 139.179 162.414V151.845H140.806V162.16ZM137.572 154.72H144.336V155.946H137.572V154.72ZM153.799 160.279C152.869 160.279 152.164 160.434 151.685 160.744C151.206 161.054 150.967 161.526 150.967 162.16C150.967 162.794 151.192 163.309 151.643 163.703C152.108 164.084 152.735 164.274 153.524 164.274C154.172 164.274 154.757 164.168 155.279 163.957C155.8 163.746 156.23 163.443 156.568 163.048C156.92 162.653 157.16 162.174 157.287 161.611L157.709 162.942C157.315 163.83 156.73 164.492 155.955 164.929C155.18 165.352 154.264 165.563 153.207 165.563C152.446 165.563 151.777 165.415 151.199 165.12C150.635 164.824 150.199 164.422 149.888 163.915C149.578 163.407 149.423 162.837 149.423 162.203C149.423 161.244 149.79 160.483 150.523 159.92C151.255 159.356 152.277 159.067 153.588 159.053H157.54V160.279H153.799ZM157.244 158.313C157.244 157.468 156.991 156.812 156.483 156.347C155.99 155.882 155.25 155.65 154.264 155.65C153.644 155.65 153.045 155.763 152.467 155.988C151.89 156.213 151.312 156.531 150.734 156.939L150.036 155.861C150.516 155.537 150.981 155.262 151.432 155.037C151.882 154.811 152.362 154.642 152.869 154.529C153.376 154.403 153.947 154.339 154.581 154.339C155.962 154.339 157.019 154.684 157.752 155.375C158.485 156.051 158.858 156.981 158.872 158.165L158.893 165.5H157.287L157.244 158.313ZM172.002 154.339C173.059 154.339 173.989 154.579 174.792 155.058C175.595 155.537 176.222 156.199 176.673 157.045C177.124 157.89 177.35 158.863 177.35 159.962C177.35 161.047 177.124 162.012 176.673 162.858C176.222 163.703 175.595 164.366 174.792 164.845C174.003 165.31 173.08 165.542 172.023 165.542C171.008 165.542 170.12 165.317 169.36 164.866C168.613 164.401 168.028 163.753 167.605 162.921C167.196 162.076 166.992 161.089 166.992 159.962C166.992 158.82 167.196 157.827 167.605 156.981C168.028 156.136 168.613 155.488 169.36 155.037C170.12 154.572 171.001 154.339 172.002 154.339ZM171.706 155.671C170.931 155.671 170.24 155.861 169.634 156.242C169.028 156.608 168.556 157.108 168.218 157.742C167.88 158.377 167.711 159.109 167.711 159.941C167.711 160.758 167.88 161.491 168.218 162.139C168.556 162.773 169.028 163.273 169.634 163.64C170.24 164.006 170.931 164.189 171.706 164.189C172.481 164.189 173.164 164.006 173.756 163.64C174.362 163.273 174.834 162.773 175.172 162.139C175.511 161.491 175.68 160.758 175.68 159.941C175.68 159.109 175.511 158.377 175.172 157.742C174.834 157.108 174.362 156.608 173.756 156.242C173.164 155.861 172.481 155.671 171.706 155.671ZM166.062 149.816H167.711V165.5H166.062V149.816ZM183.729 149.816H185.377V165.5H183.729V149.816ZM192.867 154.382H194.495V165.5H192.867V154.382ZM193.671 150.133C193.981 150.133 194.234 150.239 194.432 150.45C194.643 150.647 194.749 150.901 194.749 151.211C194.749 151.507 194.643 151.76 194.432 151.972C194.234 152.183 193.981 152.289 193.671 152.289C193.375 152.289 193.121 152.183 192.91 151.972C192.698 151.76 192.593 151.507 192.593 151.211C192.593 150.901 192.698 150.647 192.91 150.45C193.121 150.239 193.375 150.133 193.671 150.133ZM207.761 156.495C207.324 156.228 206.838 156.016 206.303 155.861C205.767 155.706 205.246 155.629 204.738 155.629C204.118 155.629 203.597 155.755 203.174 156.009C202.751 156.249 202.54 156.643 202.54 157.193C202.54 157.616 202.688 157.954 202.984 158.207C203.294 158.447 203.682 158.651 204.147 158.82C204.626 158.975 205.126 159.13 205.647 159.285C206.169 159.441 206.669 159.638 207.148 159.877C207.627 160.103 208.015 160.42 208.311 160.829C208.607 161.237 208.755 161.773 208.755 162.435C208.755 163.154 208.557 163.746 208.163 164.211C207.782 164.662 207.282 165 206.662 165.225C206.056 165.437 205.394 165.542 204.675 165.542C203.886 165.542 203.111 165.408 202.35 165.141C201.589 164.873 200.941 164.492 200.405 163.999L201.039 162.879C201.518 163.316 202.089 163.661 202.751 163.915C203.428 164.154 204.09 164.274 204.738 164.274C205.175 164.274 205.57 164.218 205.922 164.105C206.288 163.978 206.577 163.795 206.789 163.555C207.014 163.302 207.127 162.985 207.127 162.604C207.141 162.139 207 161.78 206.704 161.526C206.422 161.258 206.042 161.04 205.563 160.871C205.098 160.702 204.597 160.54 204.062 160.385C203.541 160.23 203.04 160.039 202.561 159.814C202.096 159.574 201.716 159.264 201.42 158.884C201.124 158.489 200.976 157.961 200.976 157.299C200.976 156.608 201.159 156.044 201.525 155.608C201.892 155.171 202.364 154.847 202.942 154.635C203.534 154.424 204.168 154.318 204.844 154.318C205.506 154.318 206.148 154.41 206.768 154.593C207.388 154.762 207.93 155.002 208.395 155.312L207.761 156.495ZM223.511 159.053C223.511 158.038 223.23 157.249 222.666 156.686C222.116 156.108 221.348 155.819 220.362 155.819C219.178 155.833 218.255 156.235 217.593 157.024C216.93 157.799 216.599 158.806 216.599 160.046H216.029C216.029 158.75 216.226 157.686 216.62 156.855C217.015 156.009 217.579 155.382 218.311 154.973C219.058 154.551 219.932 154.339 220.933 154.339C221.82 154.339 222.581 154.515 223.215 154.868C223.85 155.22 224.329 155.72 224.653 156.368C224.991 157.003 225.16 157.771 225.16 158.672V165.5H223.511V159.053ZM214.951 149.816H216.599V165.5H214.951V149.816ZM262.353 154.339C263.452 154.339 264.425 154.579 265.27 155.058C266.13 155.523 266.799 156.178 267.278 157.024C267.757 157.869 267.997 158.842 267.997 159.941C267.997 161.04 267.757 162.012 267.278 162.858C266.799 163.703 266.13 164.366 265.27 164.845C264.425 165.31 263.452 165.542 262.353 165.542C261.254 165.542 260.275 165.31 259.415 164.845C258.57 164.366 257.907 163.703 257.428 162.858C256.949 162.012 256.709 161.04 256.709 159.941C256.709 158.842 256.949 157.869 257.428 157.024C257.907 156.178 258.57 155.523 259.415 155.058C260.275 154.579 261.254 154.339 262.353 154.339ZM262.353 155.713C261.578 155.713 260.888 155.896 260.282 156.263C259.676 156.615 259.204 157.108 258.865 157.742C258.527 158.377 258.358 159.109 258.358 159.941C258.358 160.786 258.527 161.533 258.865 162.181C259.204 162.816 259.676 163.316 260.282 163.682C260.888 164.034 261.578 164.211 262.353 164.211C263.142 164.211 263.833 164.034 264.425 163.682C265.031 163.316 265.503 162.816 265.841 162.181C266.179 161.533 266.348 160.786 266.348 159.941C266.348 159.109 266.179 158.377 265.841 157.742C265.503 157.108 265.031 156.615 264.425 156.263C263.833 155.896 263.142 155.713 262.353 155.713ZM280.324 154.339C281.381 154.339 282.311 154.579 283.114 155.058C283.917 155.537 284.544 156.199 284.995 157.045C285.446 157.89 285.672 158.863 285.672 159.962C285.672 161.047 285.446 162.012 284.995 162.858C284.544 163.703 283.917 164.366 283.114 164.845C282.325 165.31 281.402 165.542 280.345 165.542C279.33 165.542 278.443 165.317 277.682 164.866C276.935 164.401 276.35 163.753 275.927 162.921C275.518 162.076 275.314 161.089 275.314 159.962C275.314 158.82 275.518 157.827 275.927 156.981C276.35 156.136 276.935 155.488 277.682 155.037C278.443 154.572 279.323 154.339 280.324 154.339ZM280.028 155.671C279.253 155.671 278.562 155.861 277.956 156.242C277.35 156.608 276.878 157.108 276.54 157.742C276.202 158.377 276.033 159.109 276.033 159.941C276.033 160.758 276.202 161.491 276.54 162.139C276.878 162.773 277.35 163.273 277.956 163.64C278.562 164.006 279.253 164.189 280.028 164.189C280.803 164.189 281.486 164.006 282.078 163.64C282.684 163.273 283.156 162.773 283.494 162.139C283.833 161.491 284.002 160.758 284.002 159.941C284.002 159.109 283.833 158.377 283.494 157.742C283.156 157.108 282.684 156.608 282.078 156.242C281.486 155.861 280.803 155.671 280.028 155.671ZM274.384 154.382H276.033V169.601H274.384V154.382ZM300.062 159.285C300.034 158.539 299.858 157.897 299.533 157.362C299.223 156.812 298.794 156.39 298.244 156.094C297.709 155.798 297.074 155.65 296.342 155.65C295.567 155.65 294.883 155.826 294.291 156.178C293.713 156.531 293.256 157.024 292.917 157.658C292.579 158.292 292.41 159.032 292.41 159.877C292.41 160.751 292.579 161.519 292.917 162.181C293.27 162.83 293.756 163.337 294.376 163.703C294.996 164.07 295.7 164.253 296.49 164.253C297.899 164.253 299.047 163.774 299.935 162.816L300.844 163.724C300.308 164.302 299.66 164.753 298.899 165.077C298.138 165.387 297.3 165.542 296.384 165.542C295.285 165.542 294.312 165.31 293.467 164.845C292.635 164.366 291.987 163.703 291.522 162.858C291.057 162.012 290.825 161.04 290.825 159.941C290.825 158.842 291.057 157.876 291.522 157.045C291.987 156.199 292.635 155.544 293.467 155.079C294.312 154.6 295.271 154.353 296.342 154.339C297.539 154.339 298.533 154.6 299.322 155.121C300.111 155.629 300.689 156.347 301.055 157.277C301.436 158.193 301.591 159.271 301.52 160.511H292.114V159.285H300.062ZM313.398 155.84C312.566 155.826 311.847 156.002 311.241 156.368C310.65 156.721 310.192 157.221 309.868 157.869C309.543 158.503 309.381 159.25 309.381 160.11L308.811 160.046C308.811 158.835 308.994 157.806 309.36 156.96C309.727 156.115 310.255 155.467 310.946 155.016C311.636 154.565 312.453 154.339 313.398 154.339V155.84ZM307.754 154.382H309.402V165.5H307.754V154.382ZM321.888 160.279C320.958 160.279 320.253 160.434 319.774 160.744C319.295 161.054 319.056 161.526 319.056 162.16C319.056 162.794 319.281 163.309 319.732 163.703C320.197 164.084 320.824 164.274 321.613 164.274C322.262 164.274 322.846 164.168 323.368 163.957C323.889 163.746 324.319 163.443 324.657 163.048C325.009 162.653 325.249 162.174 325.376 161.611L325.799 162.942C325.404 163.83 324.819 164.492 324.044 164.929C323.269 165.352 322.353 165.563 321.296 165.563C320.535 165.563 319.866 165.415 319.288 165.12C318.725 164.824 318.288 164.422 317.978 163.915C317.668 163.407 317.513 162.837 317.513 162.203C317.513 161.244 317.879 160.483 318.612 159.92C319.345 159.356 320.366 159.067 321.677 159.053H325.63V160.279H321.888ZM325.334 158.313C325.334 157.468 325.08 156.812 324.573 156.347C324.079 155.882 323.34 155.65 322.353 155.65C321.733 155.65 321.134 155.763 320.556 155.988C319.979 156.213 319.401 156.531 318.823 156.939L318.126 155.861C318.605 155.537 319.07 155.262 319.521 155.037C319.972 154.811 320.451 154.642 320.958 154.529C321.465 154.403 322.036 154.339 322.67 154.339C324.051 154.339 325.108 154.684 325.841 155.375C326.574 156.051 326.947 156.981 326.961 158.165L326.982 165.5H325.376L325.334 158.313ZM336.075 162.16C336.075 162.865 336.202 163.372 336.455 163.682C336.709 163.978 337.075 164.126 337.554 164.126C337.836 164.112 338.125 164.063 338.421 163.978C338.717 163.879 339.02 163.731 339.33 163.534L339.795 164.739C339.414 164.993 339.006 165.197 338.569 165.352C338.146 165.493 337.716 165.563 337.28 165.563C336.73 165.563 336.244 165.458 335.821 165.246C335.398 165.021 335.06 164.676 334.806 164.211C334.567 163.746 334.447 163.147 334.447 162.414V151.845H336.075V162.16ZM332.841 154.72H339.605V155.946H332.841V154.72ZM353.595 159.285C353.567 158.539 353.391 157.897 353.067 157.362C352.757 156.812 352.327 156.39 351.777 156.094C351.242 155.798 350.607 155.65 349.875 155.65C349.1 155.65 348.416 155.826 347.824 156.178C347.247 156.531 346.789 157.024 346.45 157.658C346.112 158.292 345.943 159.032 345.943 159.877C345.943 160.751 346.112 161.519 346.45 162.181C346.803 162.83 347.289 163.337 347.909 163.703C348.529 164.07 349.234 164.253 350.023 164.253C351.432 164.253 352.58 163.774 353.468 162.816L354.377 163.724C353.842 164.302 353.193 164.753 352.432 165.077C351.671 165.387 350.833 165.542 349.917 165.542C348.818 165.542 347.845 165.31 347 164.845C346.169 164.366 345.52 163.703 345.055 162.858C344.59 162.012 344.358 161.04 344.358 159.941C344.358 158.842 344.59 157.876 345.055 157.045C345.52 156.199 346.169 155.544 347 155.079C347.845 154.6 348.804 154.353 349.875 154.339C351.073 154.339 352.066 154.6 352.855 155.121C353.644 155.629 354.222 156.347 354.588 157.277C354.969 158.193 355.124 159.271 355.053 160.511H345.647V159.285H353.595ZM386.894 154.382H388.522V165.5H386.894V154.382ZM387.697 150.133C388.007 150.133 388.261 150.239 388.458 150.45C388.67 150.647 388.775 150.901 388.775 151.211C388.775 151.507 388.67 151.76 388.458 151.972C388.261 152.183 388.007 152.289 387.697 152.289C387.401 152.289 387.148 152.183 386.936 151.972C386.725 151.76 386.619 151.507 386.619 151.211C386.619 150.901 386.725 150.647 386.936 150.45C387.148 150.239 387.401 150.133 387.697 150.133ZM404.451 159.053C404.451 158.038 404.169 157.249 403.606 156.686C403.056 156.108 402.288 155.819 401.302 155.819C400.118 155.833 399.195 156.235 398.533 157.024C397.87 157.799 397.539 158.806 397.539 160.046H396.968C396.968 158.75 397.166 157.686 397.56 156.855C397.955 156.009 398.518 155.382 399.251 154.973C399.998 154.551 400.872 154.339 401.872 154.339C402.76 154.339 403.521 154.515 404.155 154.868C404.789 155.22 405.268 155.72 405.593 156.368C405.931 157.003 406.1 157.771 406.1 158.672V165.5H404.451V159.053ZM395.912 154.382H397.56V165.5H395.912V154.382ZM421.705 159.053C421.705 158.038 421.423 157.249 420.859 156.686C420.31 156.108 419.542 155.819 418.555 155.819C417.372 155.833 416.449 156.235 415.786 157.024C415.124 157.799 414.793 158.806 414.793 160.046H414.222C414.222 158.75 414.419 157.686 414.814 156.855C415.209 156.009 415.772 155.382 416.505 154.973C417.252 154.551 418.126 154.339 419.126 154.339C420.014 154.339 420.775 154.515 421.409 154.868C422.043 155.22 422.522 155.72 422.846 156.368C423.185 157.003 423.354 157.771 423.354 158.672V165.5H421.705V159.053ZM413.165 154.382H414.814V165.5H413.165V154.382ZM434.942 154.339C436.042 154.339 437.014 154.579 437.859 155.058C438.719 155.523 439.388 156.178 439.868 157.024C440.347 157.869 440.586 158.842 440.586 159.941C440.586 161.04 440.347 162.012 439.868 162.858C439.388 163.703 438.719 164.366 437.859 164.845C437.014 165.31 436.042 165.542 434.942 165.542C433.843 165.542 432.864 165.31 432.004 164.845C431.159 164.366 430.496 163.703 430.017 162.858C429.538 162.012 429.299 161.04 429.299 159.941C429.299 158.842 429.538 157.869 430.017 157.024C430.496 156.178 431.159 155.523 432.004 155.058C432.864 154.579 433.843 154.339 434.942 154.339ZM434.942 155.713C434.167 155.713 433.477 155.896 432.871 156.263C432.265 156.615 431.793 157.108 431.455 157.742C431.116 158.377 430.947 159.109 430.947 159.941C430.947 160.786 431.116 161.533 431.455 162.181C431.793 162.816 432.265 163.316 432.871 163.682C433.477 164.034 434.167 164.211 434.942 164.211C435.732 164.211 436.422 164.034 437.014 163.682C437.62 163.316 438.092 162.816 438.43 162.181C438.768 161.533 438.937 160.786 438.937 159.941C438.937 159.109 438.768 158.377 438.43 157.742C438.092 157.108 437.62 156.615 437.014 156.263C436.422 155.896 435.732 155.713 434.942 155.713ZM444.614 154.382H446.348L449.899 163.936L453.429 154.382H455.099L450.723 165.5H449.011L444.614 154.382ZM463.582 160.279C462.652 160.279 461.948 160.434 461.469 160.744C460.989 161.054 460.75 161.526 460.75 162.16C460.75 162.794 460.975 163.309 461.426 163.703C461.891 164.084 462.518 164.274 463.307 164.274C463.956 164.274 464.541 164.168 465.062 163.957C465.583 163.746 466.013 163.443 466.351 163.048C466.704 162.653 466.943 162.174 467.07 161.611L467.493 162.942C467.098 163.83 466.513 164.492 465.738 164.929C464.963 165.352 464.047 165.563 462.99 165.563C462.229 165.563 461.56 165.415 460.982 165.12C460.419 164.824 459.982 164.422 459.672 163.915C459.362 163.407 459.207 162.837 459.207 162.203C459.207 161.244 459.573 160.483 460.306 159.92C461.039 159.356 462.06 159.067 463.371 159.053H467.324V160.279H463.582ZM467.028 158.313C467.028 157.468 466.774 156.812 466.267 156.347C465.774 155.882 465.034 155.65 464.047 155.65C463.427 155.65 462.828 155.763 462.251 155.988C461.673 156.213 461.095 156.531 460.517 156.939L459.82 155.861C460.299 155.537 460.764 155.262 461.215 155.037C461.666 154.811 462.145 154.642 462.652 154.529C463.16 154.403 463.73 154.339 464.364 154.339C465.745 154.339 466.802 154.684 467.535 155.375C468.268 156.051 468.641 156.981 468.655 158.165L468.676 165.5H467.07L467.028 158.313ZM477.769 162.16C477.769 162.865 477.896 163.372 478.149 163.682C478.403 163.978 478.769 164.126 479.249 164.126C479.53 164.112 479.819 164.063 480.115 163.978C480.411 163.879 480.714 163.731 481.024 163.534L481.489 164.739C481.109 164.993 480.7 165.197 480.263 165.352C479.84 165.493 479.411 165.563 478.974 165.563C478.424 165.563 477.938 165.458 477.515 165.246C477.092 165.021 476.754 164.676 476.501 164.211C476.261 163.746 476.141 163.147 476.141 162.414V151.845H477.769V162.16ZM474.535 154.72H481.299V155.946H474.535V154.72ZM495.289 159.285C495.261 158.539 495.085 157.897 494.761 157.362C494.451 156.812 494.021 156.39 493.471 156.094C492.936 155.798 492.302 155.65 491.569 155.65C490.794 155.65 490.11 155.826 489.519 156.178C488.941 156.531 488.483 157.024 488.145 157.658C487.806 158.292 487.637 159.032 487.637 159.877C487.637 160.751 487.806 161.519 488.145 162.181C488.497 162.83 488.983 163.337 489.603 163.703C490.223 164.07 490.928 164.253 491.717 164.253C493.126 164.253 494.275 163.774 495.162 162.816L496.071 163.724C495.536 164.302 494.888 164.753 494.127 165.077C493.366 165.387 492.527 165.542 491.611 165.542C490.512 165.542 489.54 165.31 488.694 164.845C487.863 164.366 487.215 163.703 486.749 162.858C486.284 162.012 486.052 161.04 486.052 159.941C486.052 158.842 486.284 157.876 486.749 157.045C487.215 156.199 487.863 155.544 488.694 155.079C489.54 154.6 490.498 154.353 491.569 154.339C492.767 154.339 493.76 154.6 494.549 155.121C495.338 155.629 495.916 156.347 496.283 157.277C496.663 158.193 496.818 159.271 496.748 160.511H487.341V159.285H495.289Z" fill="white"/>
<path d="M241.316 156.96C242.119 156.96 242.774 157.214 243.282 157.721C243.789 158.215 244.043 158.856 244.043 159.645C244.043 160.448 243.789 161.11 243.282 161.632C242.774 162.139 242.119 162.393 241.316 162.393C240.527 162.393 239.878 162.139 239.371 161.632C238.864 161.11 238.61 160.448 238.61 159.645C238.61 158.856 238.864 158.215 239.371 157.721C239.878 157.214 240.527 156.96 241.316 156.96ZM370.38 156.96C371.183 156.96 371.839 157.214 372.346 157.721C372.853 158.215 373.107 158.856 373.107 159.645C373.107 160.448 372.853 161.11 372.346 161.632C371.839 162.139 371.183 162.393 370.38 162.393C369.591 162.393 368.943 162.139 368.436 161.632C367.928 161.11 367.675 160.448 367.675 159.645C367.675 158.856 367.928 158.215 368.436 157.721C368.943 157.214 369.591 156.96 370.38 156.96Z" fill="#EE4C01"/>
</svg>
