<svg width="145" height="39" viewBox="0 0 145 39" fill="none" xmlns="http://www.w3.org/2000/svg">
<path d="M39.9113 0V4.23065C39.9113 5.39867 39.4383 6.45695 38.6727 7.22261C37.907 7.98827 36.8496 8.46213 35.6807 8.46213C34.5118 8.46213 33.4544 7.98827 32.6887 7.22261C31.9231 6.45695 31.4492 5.3995 31.4492 4.23065C31.4492 1.89377 33.3438 0 35.6807 0L39.9113 0Z" fill="#EE4C01"/>
<path d="M15.0609 37.2454L14.8996 37.3269C13.2436 38.1616 11.3041 37.7376 10.092 36.4216C9.95233 36.2271 9.8268 36.0167 9.71707 35.7931C8.65463 33.5726 7.59135 31.353 6.52891 29.1317C6.49483 29.061 6.46157 28.9912 6.42832 28.9205C6.40172 28.8648 6.37428 28.8083 6.34768 28.7526C6.05256 28.1357 5.75743 27.5197 5.46314 26.9037C5.46314 26.9037 5.45982 26.897 5.45899 26.8937L5.316 26.5836L5.247 26.4348L5.03251 25.9718L4.90615 25.6999L4.87207 25.6268L4.8704 25.6226L4.8596 25.5985L4.27434 24.3324L0.411138 15.9833C-0.583135 13.8351 0.288933 11.2273 2.34814 10.1898L2.50942 10.1091C4.56863 9.07161 7.06595 9.97943 8.06022 12.1284L12.8412 22.4652L12.8819 22.5533L12.9651 22.7321L13.2411 23.3281L13.3916 23.6523L13.6318 24.1728L13.8596 24.6641L14.4656 25.9751L14.9071 26.9295L14.9204 26.9569L16.9987 31.4502C17.993 33.5992 17.1209 36.2063 15.0617 37.2438L15.0609 37.2454Z" fill="#EE4C01"/>
<path d="M13.452 23.8602C13.452 23.8602 13.452 23.8627 13.4511 23.8644C13.3564 24.2784 12.9299 25.9253 11.3454 26.9811C11.0527 27.1764 10.7593 27.3252 10.475 27.4391C10.4517 27.4483 10.4276 27.4574 10.4043 27.4666C10.3843 27.474 10.3644 27.4815 10.3444 27.489C10.3245 27.4965 10.3045 27.504 10.2846 27.5106C10.1424 27.5613 10.0028 27.6029 9.86808 27.637C9.82901 27.647 9.78994 27.6569 9.75087 27.6661C9.73175 27.6702 9.71179 27.6752 9.69267 27.6794C9.68353 27.6819 9.67438 27.6835 9.66607 27.6852C9.26953 27.77 8.92203 27.7949 8.66348 27.8008C8.63189 27.8008 8.6003 27.8016 8.56871 27.8016C8.49057 27.8016 8.42323 27.8016 8.36753 27.7999C6.93431 27.7725 5.90014 27.1881 5.46286 26.9037C5.46286 26.9037 5.45953 26.8971 5.4587 26.8938L5.31571 26.5837L5.24671 26.4349L5.03223 25.9718L4.90586 25.7L4.87178 25.6268L4.87012 25.6227C5.23923 25.8538 5.78708 26.1464 6.49454 26.3567C7.08562 26.5313 8.12561 26.8439 9.36845 26.513C10.2513 26.2778 10.8449 25.8297 11.0719 25.6551C11.8184 25.0798 12.2632 24.4122 12.5932 23.9126C12.8093 23.5851 12.9681 23.2983 13.0745 23.0938C13.2001 23.349 13.3256 23.605 13.452 23.8611V23.8602Z" fill="#CC3A00"/>
<path d="M14.9349 26.9069C14.9308 26.9219 14.9249 26.9393 14.9191 26.9568C14.895 27.0266 14.8593 27.1164 14.8027 27.2427C14.259 28.4565 13.0661 29.563 11.8116 30.056C9.62271 30.9156 7.51278 29.8008 7.13037 29.5879C6.94 29.4815 6.76791 29.3693 6.61661 29.2612C6.60331 29.2521 6.59084 29.2429 6.5792 29.2338L6.52932 29.1307C6.49523 29.06 6.46198 28.9902 6.42873 28.9195C6.40213 28.8638 6.37469 28.8073 6.34809 28.7516C6.05297 28.1348 5.75784 27.5187 5.46355 26.9027C5.46355 26.9027 5.46023 26.8961 5.4594 26.8928L5.31641 26.5827C5.47852 26.6641 5.66058 26.7464 5.86093 26.8246C6.06294 26.9036 6.28408 26.9767 6.5235 27.0407C6.69475 27.0865 7.97251 27.4148 9.21535 27.1704C11.7044 26.6808 12.973 24.1045 13.121 23.7919C13.1683 23.6855 13.2157 23.5791 13.2623 23.4727C13.3155 23.5816 13.3679 23.6905 13.4211 23.7994L13.4518 23.8634L13.6173 24.2034L13.6987 24.3713L13.8509 24.6822L13.8592 24.6648L14.0778 24.2184L14.1235 24.1244L14.1859 23.9964C14.5849 24.5484 15.2965 25.7164 14.9357 26.9086L14.9349 26.9069Z" fill="#9B2E04"/>
<path d="M26.9514 16.1386L17.3171 35.793C16.5623 37.3334 15.0567 38.2038 13.5171 38.1664C12.2019 38.1989 10.9109 37.5679 10.092 36.4223C9.95233 36.2278 9.8268 36.0174 9.71707 35.7938C8.65462 33.5733 7.59135 31.3537 6.52891 29.1324C6.49482 29.0617 6.46157 28.9919 6.42832 28.9212C6.40171 28.8655 6.37428 28.809 6.34768 28.7533C6.05255 28.1364 5.75743 27.5204 5.46314 26.9044C5.46314 26.9044 5.45982 26.8977 5.45898 26.8944C5.46231 26.8969 5.46563 26.8986 5.46979 26.9011C5.67679 27.0357 6.9213 27.8014 8.569 27.8014C8.60059 27.8014 8.63218 27.8014 8.66377 27.8006C8.98466 27.7947 9.32052 27.7598 9.66635 27.685C9.67467 27.6833 9.68381 27.6808 9.69296 27.6792C9.71208 27.675 9.73203 27.6709 9.75115 27.6659C9.79022 27.6567 9.8293 27.6468 9.86837 27.6368C10.0055 27.601 10.1452 27.5595 10.2849 27.5104C10.3048 27.5038 10.3248 27.4963 10.3447 27.4888C10.3647 27.4813 10.3846 27.4738 10.4046 27.4664C10.4279 27.4572 10.452 27.4481 10.4752 27.4389C12.581 26.6084 13.3841 24.7313 13.5171 24.4079L13.6168 24.2042L13.6193 24.2001L13.6326 24.1735L13.8471 23.7353L13.8928 23.6414L13.9552 23.5134L19.5683 12.0626C20.3074 10.5546 21.7664 9.6875 23.2728 9.6875C23.9179 9.6875 24.5713 9.84712 25.1807 10.183C27.2108 11.3036 28.0089 13.983 26.9522 16.1378L26.9514 16.1386Z" fill="white"/>
<path d="M31.4229 10.0234V37.8065H39.9374V10.0234H31.4229Z" fill="white"/>
<path d="M56.3508 11.2182C56.2045 11.3022 55.4272 11.7519 54.536 12.5375C53.427 13.5152 52.6979 14.5203 52.244 15.2518V10.0236H43.7295V37.8067H52.244V25.1596C52.3038 24.2552 52.5715 22.1735 54.1112 20.2806C56.9585 16.7798 61.5682 17.1082 62.0171 17.1481C62.0296 14.7705 62.0429 12.3921 62.0554 10.0144C60.7402 9.9363 58.4757 10.0045 56.3516 11.219L56.3508 11.2182Z" fill="white"/>
<path d="M77.351 30.4891C76.2877 30.4891 75.5329 30.2738 75.0856 29.8415C74.6375 29.4109 74.4139 28.6469 74.4139 27.5512V17.1944H79.9897V10.025H74.4139V3.20312H65.8994V27.4015C65.8994 31.1192 66.8031 33.7828 68.6129 35.3923C70.4219 37.0034 72.9524 37.8073 76.2063 37.8073H80.0404V30.4883H77.3518L77.351 30.4891Z" fill="white"/>
<path d="M111.874 10.0234V37.8065H103.31V32.7778C102.514 34.4047 101.326 35.6991 99.7502 36.6618C98.1731 37.6245 96.3392 38.1058 94.2484 38.1058C91.0619 38.1058 88.5305 37.0434 86.655 34.9193C84.7795 32.7953 83.8418 29.874 83.8418 26.1563V10.0234H92.3064V25.1104C92.3064 27.0026 92.7961 28.4715 93.7754 29.5165C94.7539 30.5623 96.0732 31.0852 97.7342 31.0852C99.3952 31.0852 100.821 30.5374 101.817 29.4425C102.813 28.3468 103.311 26.7872 103.311 24.7621V10.0234H111.875H111.874Z" fill="white"/>
<path d="M137.536 11.3933C139.71 12.5389 141.42 14.1899 142.665 16.3472C143.909 18.5054 144.532 21.0276 144.532 23.9157C144.532 26.8037 143.909 29.3268 142.665 31.4841C141.42 33.6422 139.71 35.2933 137.536 36.438C135.362 37.5836 132.898 38.1555 130.143 38.1555C127.387 38.1555 124.914 37.5828 122.724 36.438C120.533 35.2933 118.816 33.6422 117.57 31.4841C116.326 29.3268 115.703 26.8037 115.703 23.9157C115.703 21.0276 116.326 18.5054 117.57 16.3472C118.815 14.1899 120.532 12.5381 122.724 11.3933C124.914 10.2486 127.387 9.67578 130.143 9.67578C132.898 9.67578 135.362 10.2486 137.536 11.3933ZM126.035 18.8121C124.923 19.9909 124.367 21.6919 124.367 23.9157C124.367 26.1395 124.923 27.8329 126.035 28.9943C127.146 30.1565 128.516 30.7367 130.143 30.7367C131.769 30.7367 133.13 30.1565 134.225 28.9943C135.321 27.8329 135.868 26.1403 135.868 23.9157C135.868 21.691 135.32 19.9909 134.225 18.8121C133.13 17.6341 131.769 17.0447 130.143 17.0447C128.516 17.0447 127.146 17.6341 126.035 18.8121Z" fill="white"/>
</svg>
