<svg width="162" height="61" viewBox="0 0 162 61" fill="none" xmlns="http://www.w3.org/2000/svg">
<path d="M44.5662 0V4.72403C44.5662 6.02827 44.038 7.20997 43.183 8.06492C42.3281 8.91987 41.1473 9.44899 39.8422 9.44899C38.537 9.44899 37.3562 8.91987 36.5013 8.06492C35.6463 7.20997 35.1172 6.0292 35.1172 4.72403C35.1172 2.11463 37.2327 0 39.8422 0L44.5662 0Z" fill="#FF3506"/>
<path d="M16.8173 41.5891L16.6372 41.6801C14.7881 42.6121 12.6224 42.1387 11.2689 40.6692C11.113 40.452 10.9728 40.2171 10.8503 39.9674C9.66394 37.488 8.47667 35.0094 7.29032 32.5291C7.25226 32.4502 7.21513 32.3722 7.178 32.2933C7.14829 32.2311 7.11766 32.168 7.08795 32.1058C6.75841 31.417 6.42887 30.7291 6.10026 30.0413C6.10026 30.0413 6.09655 30.0338 6.09562 30.0301L5.93596 29.6839L5.85891 29.5177L5.61941 29.0007L5.47831 28.6971L5.44025 28.6154L5.4384 28.6108L5.42633 28.5839L4.77282 27.1701L0.459086 17.8473C-0.651141 15.4487 0.322628 12.5366 2.62199 11.3781L2.80207 11.2881C5.10143 10.1296 7.88999 11.1433 9.00022 13.5429L14.3388 25.0852L14.3843 25.1836L14.4771 25.3831L14.7853 26.0487L14.9533 26.4108L15.2216 26.9919L15.4759 27.5405L16.1526 29.0044L16.6456 30.07L16.6604 30.1007L18.9811 35.1181C20.0913 37.5177 19.1176 40.4288 16.8182 41.5873L16.8173 41.5891Z" fill="#FF3506"/>
<path d="M15.0221 26.643C15.0221 26.643 15.0221 26.6458 15.0212 26.6476C14.9154 27.1099 14.4392 28.9488 12.6698 30.1278C12.3431 30.3459 12.0154 30.5121 11.6979 30.6392C11.6719 30.6495 11.645 30.6597 11.619 30.6699C11.5968 30.6782 11.5745 30.6866 11.5522 30.6949C11.5299 30.7033 11.5076 30.7117 11.4854 30.7191C11.3266 30.7757 11.1707 30.8221 11.0203 30.8602C10.9767 30.8713 10.933 30.8825 10.8894 30.8927C10.8681 30.8973 10.8458 30.9029 10.8244 30.9075C10.8142 30.9103 10.804 30.9122 10.7947 30.914C10.3519 31.0087 9.9639 31.0365 9.67521 31.043C9.63993 31.043 9.60466 31.044 9.56938 31.044C9.48213 31.044 9.40693 31.044 9.34474 31.0421C7.74438 31.0115 6.5896 30.3589 6.10132 30.0414C6.10132 30.0414 6.09761 30.034 6.09668 30.0303L5.93701 29.684L5.85997 29.5179L5.62047 29.0008L5.47937 28.6973L5.44131 28.6156L5.43945 28.6109C5.85161 28.869 6.46335 29.1958 7.25332 29.4306C7.91333 29.6256 9.07461 29.9746 10.4624 29.6051C11.4482 29.3424 12.111 28.8421 12.3644 28.6471C13.198 28.0048 13.6947 27.2594 14.0632 26.7015C14.3046 26.3357 14.4819 26.0155 14.6007 25.7871C14.7408 26.0721 14.881 26.358 15.0221 26.6439V26.643Z" fill="#CC3A00"/>
<path d="M16.6777 30.0457C16.6731 30.0624 16.6666 30.0819 16.6601 30.1014C16.6332 30.1793 16.5933 30.2796 16.5301 30.4207C15.923 31.776 14.591 33.0115 13.1902 33.562C10.746 34.5219 8.39002 33.277 7.96301 33.0394C7.75044 32.9206 7.55828 32.7952 7.38933 32.6746C7.37448 32.6644 7.36056 32.6542 7.34756 32.6439L7.29186 32.5288C7.25381 32.4499 7.21667 32.372 7.17954 32.293C7.14984 32.2309 7.1192 32.1677 7.0895 32.1055C6.75996 31.4167 6.43042 30.7289 6.10181 30.041C6.10181 30.041 6.09809 30.0336 6.09716 30.0299L5.9375 29.6836C6.11852 29.7746 6.32181 29.8665 6.54553 29.9538C6.7711 30.042 7.01802 30.1237 7.28537 30.1951C7.47659 30.2462 8.90336 30.6129 10.2911 30.3399C13.0704 29.7932 14.487 26.9164 14.6522 26.5674C14.7051 26.4486 14.758 26.3298 14.81 26.2109C14.8694 26.3325 14.9279 26.4541 14.9873 26.5758L15.0217 26.6472L15.2064 27.0269L15.2974 27.2144L15.4673 27.5616L15.4765 27.5421L15.7207 27.0436L15.7717 26.9387L15.8414 26.7958C16.2869 27.4121 17.0815 28.7164 16.6787 30.0475L16.6777 30.0457Z" fill="#9B2E04"/>
<path d="M30.0946 18.0199L19.3367 39.9664C18.4938 41.6865 16.8127 42.6584 15.0935 42.6166C13.625 42.6528 12.1834 41.9482 11.269 40.6691C11.1131 40.4518 10.9729 40.217 10.8504 39.9673C9.66402 37.4878 8.47675 35.0093 7.2904 32.5289C7.25234 32.45 7.21521 32.3721 7.17808 32.2932C7.14838 32.231 7.11774 32.1678 7.08804 32.1056C6.7585 31.4169 6.42896 30.729 6.10034 30.0411C6.10034 30.0411 6.09663 30.0337 6.0957 30.03C6.09942 30.0328 6.10313 30.0346 6.10777 30.0374C6.33891 30.1878 7.72855 31.0428 9.56841 31.0428C9.60368 31.0428 9.63896 31.0428 9.67423 31.0418C10.0326 31.0353 10.4076 30.9964 10.7937 30.9128C10.803 30.9109 10.8132 30.9082 10.8234 30.9063C10.8448 30.9017 10.8671 30.897 10.8884 30.8915C10.9321 30.8812 10.9757 30.8701 11.0193 30.859C11.1725 30.819 11.3284 30.7726 11.4844 30.7179C11.5067 30.7104 11.5289 30.7021 11.5512 30.6937C11.5735 30.6854 11.5958 30.677 11.6181 30.6687C11.644 30.6585 11.671 30.6482 11.697 30.638C14.0483 29.7107 14.945 27.6146 15.0935 27.2535L15.2049 27.0261L15.2077 27.0214L15.2226 26.9917L15.4621 26.5025L15.5131 26.3976L15.5828 26.2547L21.8505 13.4685C22.6758 11.7846 24.3049 10.8164 25.9869 10.8164C26.7073 10.8164 27.4369 10.9946 28.1174 11.3697C30.3842 12.621 31.2754 15.6128 30.0955 18.019L30.0946 18.0199Z" fill="white"/>
<path d="M35.0898 11.1953V42.2185H44.5973V11.1953H35.0898Z" fill="white"/>
<path d="M62.9233 12.5292C62.7599 12.6229 61.8919 13.1251 60.8968 14.0023C59.6585 15.094 58.8444 16.2163 58.3376 17.0332V11.1952H48.8301V42.2184H58.3376V28.0965C58.4044 27.0865 58.7033 24.7621 60.4225 22.6484C63.6018 18.7394 68.7492 19.106 69.2504 19.1506C69.2644 16.4957 69.2792 13.8399 69.2931 11.185C67.8246 11.0977 65.296 11.1739 62.9242 12.5301L62.9233 12.5292Z" fill="white"/>
<path d="M86.373 34.0462C85.1858 34.0462 84.3429 33.8058 83.8435 33.3231C83.3431 32.8422 83.0934 31.9892 83.0934 30.7657V19.2011H89.3194V11.1956H83.0934V3.57812H73.5859V30.5986C73.5859 34.7499 74.595 37.7241 76.6158 39.5212C78.6358 41.3203 81.4615 42.2179 85.0948 42.2179H89.376V34.0453H86.374L86.373 34.0462Z" fill="white"/>
<path d="M124.923 11.1953V42.2185H115.36V36.6033C114.47 38.42 113.145 39.8653 111.385 40.9403C109.624 42.0152 107.576 42.5527 105.241 42.5527C101.683 42.5527 98.8566 41.3664 96.7624 38.9946C94.6682 36.6228 93.6211 33.3609 93.6211 29.2096V11.1953H103.073V28.0418C103.073 30.1546 103.62 31.7948 104.713 32.9617C105.806 34.1295 107.279 34.7134 109.134 34.7134C110.988 34.7134 112.58 34.1016 113.692 32.8791C114.805 31.6556 115.361 29.9141 115.361 27.6528V11.1953H124.924H124.923Z" fill="white"/>
<path d="M153.579 12.7245C156.006 14.0036 157.916 15.8472 159.305 18.2561C160.695 20.6659 161.39 23.4823 161.39 26.7072C161.39 29.9321 160.695 32.7494 159.305 35.1583C157.916 37.5681 156.006 39.4117 153.579 40.6899C151.151 41.9691 148.399 42.6078 145.323 42.6078C142.246 42.6078 139.485 41.9682 137.039 40.6899C134.593 39.4117 132.675 37.5681 131.284 35.1583C129.894 32.7494 129.199 29.9321 129.199 26.7072C129.199 23.4823 129.894 20.6659 131.284 18.2561C132.674 15.8472 134.592 14.0027 137.039 12.7245C139.485 11.4462 142.245 10.8066 145.323 10.8066C148.4 10.8066 151.151 11.4462 153.579 12.7245ZM140.736 21.0085C139.494 22.3248 138.874 24.224 138.874 26.7072C138.874 29.1904 139.494 31.0813 140.736 32.3781C141.977 33.6758 143.506 34.3238 145.323 34.3238C147.139 34.3238 148.659 33.6758 149.881 32.3781C151.105 31.0813 151.716 29.1913 151.716 26.7072C151.716 24.2231 151.104 22.3248 149.881 21.0085C148.659 19.6931 147.138 19.0349 145.323 19.0349C143.507 19.0349 141.977 19.6931 140.736 21.0085Z" fill="white"/>
<path d="M85.611 59.1473C85.2796 59.7071 84.7877 60.1554 84.136 60.4933C83.4843 60.8312 82.6916 61.0002 81.7577 61.0002C80.8239 61.0002 80.0126 60.8433 79.2876 60.5305C78.5626 60.2167 77.9815 59.7655 77.5452 59.1752C77.1089 58.5857 76.8601 57.8969 76.7988 57.1107H79.5642C79.6255 57.6388 79.8371 58.0789 80.2001 58.4288C80.5621 58.7788 81.0448 58.9542 81.6473 58.9542C82.1875 58.9542 82.6025 58.8103 82.8912 58.5207C83.1799 58.2311 83.3247 57.8607 83.3247 57.4058C83.3247 57.0002 83.2077 56.666 82.9747 56.4015C82.7408 56.1369 82.4465 55.9252 82.0901 55.7656C81.7336 55.6059 81.2425 55.4221 80.615 55.2123C79.8037 54.9422 79.14 54.6748 78.6239 54.4103C78.1077 54.1457 77.6686 53.7623 77.3057 53.2583C76.9427 52.7542 76.7617 52.097 76.7617 51.2857C76.7617 50.168 77.1637 49.2852 77.9694 48.6401C78.7742 47.9949 79.8408 47.6719 81.1673 47.6719C82.4939 47.6719 83.6403 48.0033 84.4581 48.667C85.275 49.3307 85.7391 50.2154 85.8496 51.321H83.048C82.9747 50.854 82.7779 50.4697 82.4586 50.169C82.1393 49.8682 81.703 49.7178 81.1497 49.7178C80.6707 49.7178 80.2836 49.8441 79.9884 50.0956C79.6932 50.3472 79.5456 50.7129 79.5456 51.1929C79.5456 51.5734 79.6589 51.89 79.8863 52.1425C80.1137 52.3941 80.4024 52.6001 80.7524 52.7598C81.1024 52.9195 81.5786 53.0977 82.181 53.2945C83.0165 53.5897 83.6951 53.8663 84.2177 54.1244C84.7403 54.3824 85.1859 54.7695 85.5544 55.2857C85.9229 55.8018 86.1077 56.4776 86.1077 57.313C86.1077 57.9767 85.9415 58.5885 85.6101 59.1473H85.611Z" fill="white"/>
<path d="M90.773 49.921V53.2944H95.381V55.2855H90.773V58.788H95.9343V60.871H88.1738V47.8574H95.9343V49.9219H90.773V49.921Z" fill="white"/>
<path d="M104.781 60.871L101.74 55.8017H100.597V60.871H97.998V47.8574H102.957C104.468 47.8574 105.62 48.226 106.413 48.963C107.206 49.7001 107.602 50.6711 107.602 51.875C107.602 52.8581 107.328 53.6815 106.781 54.3452C106.235 55.0089 105.445 55.4508 104.412 55.6726L107.657 60.871H104.781ZM100.596 54.0138H102.734C104.221 54.0138 104.965 53.3566 104.965 52.0412C104.965 51.4146 104.784 50.9263 104.421 50.5754C104.058 50.2255 103.496 50.05 102.734 50.05H100.596V54.0129V54.0138Z" fill="white"/>
<path d="M111.326 47.8574L114.81 58.1614L118.312 47.8574H121.095L116.487 60.871H113.151L108.543 47.8574H111.326Z" fill="white"/>
<path d="M125.242 47.8574V60.871H122.643V47.8574H125.242Z" fill="white"/>
<path d="M137.667 48.9818C138.737 49.8172 139.443 50.9544 139.787 52.3923H137.059C136.776 51.6915 136.337 51.1391 135.741 50.7335C135.145 50.3278 134.429 50.1254 133.594 50.1254C132.905 50.1254 132.285 50.2981 131.732 50.6416C131.178 50.986 130.749 51.477 130.441 52.1166C130.134 52.7562 129.981 53.5053 129.981 54.3658C129.981 55.2264 130.134 55.9578 130.441 56.5965C130.749 57.2361 131.178 57.7271 131.732 58.0715C132.285 58.4159 132.905 58.5877 133.594 58.5877C134.429 58.5877 135.145 58.3853 135.741 57.9796C136.337 57.574 136.776 57.0207 137.059 56.3208H139.787C139.443 57.7587 138.737 58.8959 137.667 59.7313C136.598 60.5668 135.253 60.9845 133.63 60.9845C132.389 60.9845 131.292 60.7051 130.339 60.1453C129.387 59.5865 128.65 58.803 128.127 57.7949C127.605 56.7877 127.344 55.645 127.344 54.3668C127.344 53.0885 127.605 51.9272 128.127 50.92C128.649 49.9129 129.383 49.1294 130.33 48.5696C131.276 48.0108 132.376 47.7305 133.629 47.7305C135.251 47.7305 136.597 48.1482 137.666 48.9837L137.667 48.9818Z" fill="white"/>
<path d="M144.488 49.921V53.2944H149.096V55.2855H144.488V58.788H149.649V60.871H141.889V47.8574H149.649V49.9219H144.488V49.921Z" fill="white"/>
<path d="M160.154 59.1473C159.823 59.7071 159.331 60.1554 158.679 60.4933C158.027 60.8312 157.235 61.0002 156.301 61.0002C155.367 61.0002 154.556 60.8433 153.831 60.5305C153.106 60.2167 152.524 59.7655 152.088 59.1752C151.652 58.5857 151.403 57.8969 151.342 57.1107H154.107C154.168 57.6388 154.38 58.0789 154.743 58.4288C155.105 58.7788 155.588 58.9542 156.19 58.9542C156.731 58.9542 157.145 58.8103 157.434 58.5207C157.723 58.232 157.868 57.8607 157.868 57.4058C157.868 57.0002 157.751 56.666 157.518 56.4015C157.284 56.1369 156.989 55.9252 156.633 55.7656C156.277 55.6059 155.785 55.4221 155.158 55.2123C154.347 54.9422 153.683 54.6748 153.167 54.4103C152.651 54.1457 152.212 53.7623 151.849 53.2583C151.486 52.7542 151.305 52.097 151.305 51.2857C151.305 50.168 151.707 49.2852 152.512 48.6401C153.317 47.9949 154.384 47.6719 155.71 47.6719C157.037 47.6719 158.183 48.0033 159.001 48.667C159.818 49.3307 160.282 50.2154 160.393 51.321H157.591C157.518 50.854 157.321 50.4697 157.002 50.169C156.682 49.8682 156.246 49.7178 155.693 49.7178C155.214 49.7178 154.827 49.8441 154.531 50.0956C154.236 50.3472 154.089 50.7129 154.089 51.1929C154.089 51.5734 154.202 51.89 154.429 52.1425C154.657 52.3941 154.945 52.6001 155.295 52.7598C155.645 52.9195 156.122 53.0977 156.724 53.2945C157.559 53.5897 158.238 53.8663 158.761 54.1244C159.283 54.3824 159.729 54.7695 160.097 55.2857C160.466 55.8018 160.651 56.4776 160.651 57.313C160.651 57.9767 160.484 58.5885 160.153 59.1473H160.154Z" fill="white"/>
</svg>
